<svg width="100" height="100" viewBox="0 0 100 100" fill="none" xmlns="http://www.w3.org/2000/svg">
<g clip-path="url(#clip0)">
<path d="M95 74.1667H93.3333V15.8333C93.3333 13.0719 91.0948 10.8333 88.3333 10.8333H83.3333C80.5719 10.8333 78.3333 13.0719 78.3333 15.8333V21.14C77.7996 20.9426 77.2357 20.8389 76.6667 20.8333H71.6667C71.0976 20.8389 70.5338 20.9426 70 21.14V7.5C70 4.73858 67.7614 2.5 65 2.5H48.3333C45.5719 2.5 43.3333 4.73858 43.3333 7.5V16.14C42.7996 15.9426 42.2357 15.8389 41.6667 15.8333H35C34.3401 15.8329 33.6867 15.9643 33.0783 16.22C32.5575 14.6113 31.259 13.3748 29.6267 12.9333L24.7933 11.64C23.5121 11.2959 22.1466 11.475 20.9975 12.138C19.8485 12.8011 19.01 13.8935 18.6667 15.175L10.27 46.5083L7.88833 55.4217L4 69.91C3.65236 71.1909 3.83244 72.5578 4.5 73.705C4.60204 73.87 4.71333 74.0292 4.83333 74.1817C2.14302 74.2714 0.00657983 76.4749 0 79.1667V82.5C0 85.2614 2.23858 87.5 5 87.5H6.66667V92.5C6.66667 95.2614 8.90524 97.5 11.6667 97.5H18.3333C21.0948 97.5 23.3333 95.2614 23.3333 92.5V87.5H76.6667V92.5C76.6667 95.2614 78.9052 97.5 81.6667 97.5H88.3333C91.0948 97.5 93.3333 95.2614 93.3333 92.5V87.5H95C97.7614 87.5 100 85.2614 100 82.5V79.1667C100 76.4052 97.7614 74.1667 95 74.1667ZM70 74.1667V62.5H78.3333V74.1667H70ZM46.6667 74.1667V67.5H66.6667V74.1667H46.6667ZM33.3333 74.1667V69.1667H43.3333V74.1667H33.3333ZM18.3617 74.1667C18.405 74.0417 18.4617 73.9233 18.4967 73.7933L30 30.86V74.1667H18.3617ZM15.4833 39.9633L17.58 32.13L25.6283 34.2867L19.59 56.8333L11.54 54.6767L15.4833 39.9633ZM46.6667 15.8333H66.6667V64.1667H46.6667V15.8333ZM90 55.8333H81.6667V32.5H90V55.8333ZM78.3333 57.5V59.1667H70V39.1667H78.3333V57.5ZM43.3333 65.8333H33.3333V27.5H43.3333V65.8333ZM81.6667 60.8333V59.1667H90V74.1667H81.6667V60.8333ZM81.6667 15.8333C81.6667 14.9129 82.4129 14.1667 83.3333 14.1667H88.3333C89.2538 14.1667 90 14.9129 90 15.8333V29.1667H81.6667V15.8333ZM71.6667 24.1667H76.6667C77.5871 24.1667 78.3333 24.9129 78.3333 25.8333V35.8333H70V25.8333C70 24.9129 70.7462 24.1667 71.6667 24.1667ZM48.3333 5.83333H65C65.9205 5.83333 66.6667 6.57952 66.6667 7.5V12.5H46.6667V7.5C46.6667 6.57952 47.4129 5.83333 48.3333 5.83333ZM35 19.1667H41.6667C42.5871 19.1667 43.3333 19.9129 43.3333 20.8333V24.1667H33.3333V20.8333C33.3333 19.9129 34.0795 19.1667 35 19.1667ZM21.8933 16.0383C22.1317 15.1499 23.0447 14.6225 23.9333 14.86L28.7667 16.1533C29.1937 16.2678 29.5578 16.5472 29.7787 16.9301C29.9997 17.313 30.0595 17.768 29.945 18.195L26.5 31.075L18.45 28.9167L21.8933 16.0383ZM7.22667 70.7733L10.6767 57.895L18.7283 60.0517L15.2767 72.93C15.1622 73.3574 14.8826 73.7218 14.4993 73.9428C14.116 74.1638 13.6606 74.2234 13.2333 74.1083L8.4 72.815C7.97297 72.7006 7.60891 72.4211 7.38792 72.0382C7.16693 71.6553 7.10713 71.2003 7.22167 70.7733H7.22667ZM20 92.5C20 93.4205 19.2538 94.1667 18.3333 94.1667H11.6667C10.7462 94.1667 10 93.4205 10 92.5V87.5H20V92.5ZM90 92.5C90 93.4205 89.2538 94.1667 88.3333 94.1667H81.6667C80.7462 94.1667 80 93.4205 80 92.5V87.5H90V92.5ZM96.6667 82.5C96.6667 83.4205 95.9205 84.1667 95 84.1667H5C4.07953 84.1667 3.33333 83.4205 3.33333 82.5V79.1667C3.33333 78.2462 4.07953 77.5 5 77.5H95C95.9205 77.5 96.6667 78.2462 96.6667 79.1667V82.5Z" fill="currentColor"/>
<path d="M51.6667 24.1667H61.6667C62.5872 24.1667 63.3334 23.4205 63.3334 22.5C63.3334 21.5795 62.5872 20.8333 61.6667 20.8333H51.6667C50.7462 20.8333 50 21.5795 50 22.5C50 23.4205 50.7462 24.1667 51.6667 24.1667Z" fill="currentColor" />
<path d="M51.6667 30.8333H61.6667C62.5872 30.8333 63.3334 30.0871 63.3334 29.1667C63.3334 28.2462 62.5872 27.5 61.6667 27.5H51.6667C50.7462 27.5 50 28.2462 50 29.1667C50 30.0871 50.7462 30.8333 51.6667 30.8333Z" fill="currentColor"/>
</g>
<defs>
<clipPath id="clip0">
<rect width="100" height="100" fill="white"/>
</clipPath>
</defs>
</svg>
