<svg id="Capa_1" enable-background="new 0 0 512 512" height="512" viewBox="0 0 512 512" width="512" xmlns="http://www.w3.org/2000/svg"><g><path d="m419.17 410.104v62.4h-288.17c-11.87 0-21.5-9.63-21.5-21.5v-19.4c0-11.87 9.63-21.5 21.5-21.5z" fill="#d9ecfd"/><path d="m419.17 441.304v31.2h-288.17c-11.87 0-21.5-9.63-21.5-21.5v-9.7z" fill="#c5e2ff"/><path d="m132.68 378.104v-370.604h-20.18c-19.33 0-35 15.67-35 35v389.104c0-29.645 24.103-53.64 53.748-53.506z" fill="#db3915"/><path d="m132.68 7.5h301.82v370.604h-301.82z" fill="#fc5a36"/><path d="m131 378.104c-29.547 0-53.5 23.953-53.5 53.5v19.396c0 29.547 23.953 53.5 53.5 53.5h303.5v-32h-303.5c-11.874 0-21.5-9.626-21.5-21.5v-19.396c0-11.874 9.626-21.5 21.5-21.5h303.5v-32z" fill="#a42b0f"/><path d="m193.467 63.104h180.382v80.72h-180.382z" fill="#ffc85e"/><g><path d="m434.5 0h-322c-23.435 0-42.5 19.059-42.5 42.485v408.515c0 33.635 27.364 61 61 61h303.5c4.143 0 7.5-3.358 7.5-7.5v-32c0-4.142-3.357-7.5-7.5-7.5h-7.83v-47.396h7.83c4.143 0 7.5-3.358 7.5-7.5v-402.604c0-4.142-3.358-7.5-7.5-7.5zm-349.5 42.485c0-15.155 12.337-27.485 27.5-27.485h12.68v263.534c0 4.142 3.357 7.5 7.5 7.5s7.5-3.358 7.5-7.5v-263.534h286.82v355.604h-286.82v-59.38c0-4.142-3.357-7.5-7.5-7.5s-7.5 3.358-7.5 7.5v59.664c-15.988 1.521-30.186 9.242-40.18 20.721zm326.67 391.319h-53.67c-4.143 0-7.5 3.358-7.5 7.5s3.357 7.5 7.5 7.5h53.67v16.196h-280.67c-9.167 0-14.875-7.396-14-16.196h208.31c4.143 0 7.5-3.358 7.5-7.5s-3.357-7.5-7.5-7.5h-208.31c-.875-9.45 4.831-16.2 14-16.2h280.67zm15.33-31.2h-296c-15.99 0-29 13.009-29 29v19.396c0 15.991 13.01 29 29 29h296v17h-296c-25.364 0-46-20.636-46-46v-19.396c0-25.364 20.636-46 46-46h296z"/><path d="m193.469 151.324h180.38c4.143 0 7.5-3.358 7.5-7.5v-80.72c0-4.142-3.357-7.5-7.5-7.5h-45.349c-4.143 0-7.5 3.358-7.5 7.5s3.357 7.5 7.5 7.5h37.85v65.72h-165.38v-65.72h94.84c4.143 0 7.5-3.358 7.5-7.5s-3.357-7.5-7.5-7.5h-102.34c-4.143 0-7.5 3.358-7.5 7.5v80.72c-.001 4.142 3.357 7.5 7.499 7.5z"/><path d="m341.658 241.592h-116c-4.143 0-7.5 3.358-7.5 7.5s3.357 7.5 7.5 7.5h116c4.143 0 7.5-3.358 7.5-7.5s-3.357-7.5-7.5-7.5z"/><path d="m341.658 277.409h-116c-4.143 0-7.5 3.358-7.5 7.5s3.357 7.5 7.5 7.5h116c4.143 0 7.5-3.358 7.5-7.5s-3.357-7.5-7.5-7.5z"/></g></g></svg>