<svg id="bold" height="512" viewBox="0 0 24 24" width="512" xmlns="http://www.w3.org/2000/svg"><path d="m23.744 21.406-5.28-8.579c-.301-.51-.861-.827-1.464-.827s-1.163.317-1.456.815l-5.271 8.565c-.179.265-.273.581-.273.915 0 .94.768 1.705 1.712 1.705h10.576c.944 0 1.712-.765 1.712-1.705 0-.334-.094-.65-.256-.889zm-6.744 1.094c-.552 0-1-.448-1-1s.448-1 1-1 1 .448 1 1-.448 1-1 1zm1-4c0 .552-.447 1-1 1s-1-.448-1-1v-3c0-.552.447-1 1-1s1 .448 1 1z"/><path d="m17.98.11c-2.59-.38-4.88.24-6.98 1.89-2.1-1.65-4.39-2.27-6.98-1.89-.87.12-1.52.87-1.52 1.73v10.97c0 .49.21.96.58 1.29.37.34.88.5 1.38.44 1.59-.18 3.13.15 4.55.96.52.28 1.02.64 1.5 1.06.09.08.18.13.29.16l.75-1.22.86-1.4c-.48.26-.96.57-1.41.93-1.72-1.34-3.66-2.04-5.69-2.04-.34 0-.67.02-1.02.06-.11.01-.18-.04-.21-.07-.05-.04-.08-.1-.08-.17v-10.97c0-.12.1-.23.23-.25 2.37-.35 4.36.28 6.28 1.95.28.25.7.25.98 0 1.92-1.67 3.91-2.29 6.28-1.95.13.02.23.13.23.25v8.3c.56.15 1.07.44 1.5.83v-9.13c0-.86-.65-1.61-1.52-1.73z"/><path d="m11.55 15.5-.75 1.22-.18.28h-8.87c-.96 0-1.75-.79-1.75-1.75v-11.5c0-.96.78-1.74 1.74-1.75h1.26c.41 0 .75.33.75.75 0 .41-.33.75-.75.75h-1.25c-.14 0-.25.12-.25.25v11.5c0 .14.11.25.25.25z"/><path d="m22 3.75v11l-1.5-2.44v-8.56c0-.14-.11-.25-.25-.25h-1.25c-.41 0-.75-.34-.75-.75s.34-.75.75-.75h1.25c.96 0 1.75.79 1.75 1.75z"/><path d="m10.25 16v-13c0-.414.336-.75.75-.75s.75.336.75.75v11.75z"/></svg>