<svg width="342" height="69" viewBox="0 0 342 69" fill="none" xmlns="http://www.w3.org/2000/svg">
<g filter="url(#filter0_d)">
<g filter="url(#filter1_d)">
<path d="M81.798 10.85C82.5647 10.85 83.748 10.7833 85.348 10.65C87.2814 10.5167 88.8147 10.45 89.948 10.45C97.5147 10.45 101.298 13.2667 101.298 18.9C101.298 23.7667 98.4147 26.9167 92.648 28.35C94.3147 28.3833 95.7814 28.75 97.048 29.45C98.348 30.1167 99.348 31.0167 100.048 32.15C100.748 33.2833 101.098 34.5333 101.098 35.9C101.131 40.2667 99.648 43.45 96.648 45.45C93.648 47.45 89.348 48.45 83.748 48.45C82.6814 48.45 81.398 48.3667 79.898 48.2C78.2314 48.0667 77.0647 48 76.398 48H69.748L69.948 45.7L73.448 45L77.498 13.9L74.048 13.3L74.298 10.85H81.798ZM82.498 27.25C83.0647 27.2833 83.548 27.3 83.948 27.3C84.3814 27.2667 84.748 27.25 85.048 27.25H86.398C88.798 27.25 90.7814 26.6 92.348 25.3C93.9147 23.9667 94.698 21.9667 94.698 19.3C94.698 15.3 92.5814 13.3 88.348 13.3C86.5814 13.3 85.2314 13.4 84.298 13.6L82.498 27.25ZM80.148 45.05C80.7147 45.2167 81.4647 45.35 82.398 45.45C83.3647 45.55 84.148 45.6 84.748 45.6C87.648 45.6 89.8814 44.9167 91.448 43.55C93.0147 42.15 93.798 39.9833 93.798 37.05C93.798 34.75 93.198 33.05 91.998 31.95C90.8314 30.85 88.948 30.3 86.348 30.3C84.5814 30.3 83.1647 30.3333 82.098 30.4L80.148 45.05ZM120.561 19.55C124.028 19.55 126.678 20.5667 128.511 22.6C130.345 24.6 131.261 27.4833 131.261 31.25C131.261 34.35 130.628 37.2333 129.361 39.9C128.095 42.5667 126.311 44.7 124.011 46.3C121.711 47.8667 119.078 48.65 116.111 48.65C112.645 48.65 109.995 47.6333 108.161 45.6C106.361 43.5333 105.461 40.6 105.461 36.8C105.461 33.6667 106.078 30.7833 107.311 28.15C108.578 25.5167 110.361 23.4333 112.661 21.9C114.961 20.3333 117.595 19.55 120.561 19.55ZM119.711 22.7C118.178 22.7 116.878 23.4 115.811 24.8C114.745 26.1667 113.945 27.9167 113.411 30.05C112.911 32.1833 112.661 34.3667 112.661 36.6C112.661 39.7667 113.011 42.0833 113.711 43.55C114.445 45.0167 115.578 45.75 117.111 45.75C118.611 45.75 119.878 45.05 120.911 43.65C121.945 42.25 122.711 40.4667 123.211 38.3C123.711 36.1333 123.961 33.9167 123.961 31.65C123.961 28.4833 123.611 26.2 122.911 24.8C122.245 23.4 121.178 22.7 119.711 22.7ZM150.567 19.55C154.034 19.55 156.684 20.5667 158.517 22.6C160.351 24.6 161.267 27.4833 161.267 31.25C161.267 34.35 160.634 37.2333 159.367 39.9C158.101 42.5667 156.317 44.7 154.017 46.3C151.717 47.8667 149.084 48.65 146.117 48.65C142.651 48.65 140.001 47.6333 138.167 45.6C136.367 43.5333 135.467 40.6 135.467 36.8C135.467 33.6667 136.084 30.7833 137.317 28.15C138.584 25.5167 140.367 23.4333 142.667 21.9C144.967 20.3333 147.601 19.55 150.567 19.55ZM149.717 22.7C148.184 22.7 146.884 23.4 145.817 24.8C144.751 26.1667 143.951 27.9167 143.417 30.05C142.917 32.1833 142.667 34.3667 142.667 36.6C142.667 39.7667 143.017 42.0833 143.717 43.55C144.451 45.0167 145.584 45.75 147.117 45.75C148.617 45.75 149.884 45.05 150.917 43.65C151.951 42.25 152.717 40.4667 153.217 38.3C153.717 36.1333 153.967 33.9167 153.967 31.65C153.967 28.4833 153.617 26.2 152.917 24.8C152.251 23.4 151.184 22.7 149.717 22.7ZM177.473 8.35L172.173 48H165.573L170.373 11.55L167.323 10.55L167.723 8.7L176.223 7.7L177.473 8.35ZM175.623 32.35C177.09 31.5167 178.34 30.7 179.373 29.9C180.406 29.1 181.44 28.0167 182.473 26.65C183.306 25.4833 183.756 24.15 183.823 22.65C183.856 21.6167 184.223 20.8667 184.923 20.4C185.656 19.9333 186.456 19.7 187.323 19.7C188.19 19.7 188.873 19.9667 189.373 20.5C189.873 21.0333 190.123 21.7 190.123 22.5C190.156 23.7 189.74 24.9167 188.873 26.15C187.973 27.3167 186.723 28.4333 185.123 29.5C183.556 30.5667 181.923 31.5 180.223 32.3L185.623 42C186.023 42.7 186.456 43.25 186.923 43.65C187.423 44.0167 187.873 44.2 188.273 44.2C188.64 44.2 189.056 44.1167 189.523 43.95C190.023 43.75 190.49 43.4667 190.923 43.1L191.723 44.7C191.156 45.5333 190.206 46.3667 188.873 47.2C187.54 48.0333 186.09 48.45 184.523 48.45C183.356 48.45 182.406 48.2167 181.673 47.75C180.973 47.2833 180.406 46.5833 179.973 45.65L174.423 33.1L175.623 32.35ZM212.926 14.45C211.892 13.6167 210.442 13.2 208.576 13.2C206.742 13.2 205.242 13.65 204.076 14.55C202.942 15.4167 202.376 16.6 202.376 18.1C202.376 19.8667 202.909 21.3667 203.976 22.6C205.076 23.8 206.876 25.1833 209.376 26.75C211.776 28.25 213.659 29.8167 215.026 31.45C216.426 33.0833 217.126 35.05 217.126 37.35C217.159 39.45 216.642 41.35 215.576 43.05C214.509 44.75 212.926 46.1 210.826 47.1C208.759 48.0667 206.276 48.55 203.376 48.55C201.009 48.55 198.742 48.3 196.576 47.8C194.409 47.2667 192.992 46.75 192.326 46.25L193.626 38.8H197.776L198.026 44.15C198.626 44.6167 199.376 44.9833 200.276 45.25C201.209 45.5167 202.209 45.65 203.276 45.65C205.542 45.65 207.309 45.15 208.576 44.15C209.876 43.1167 210.526 41.7333 210.526 40C210.526 38.4 210.026 37.0333 209.026 35.9C208.026 34.7333 206.392 33.4333 204.126 32C201.626 30.4333 199.642 28.7833 198.176 27.05C196.742 25.3167 196.009 23.2833 195.976 20.95C195.976 18.7833 196.542 16.9 197.676 15.3C198.809 13.7 200.359 12.4833 202.326 11.65C204.326 10.8167 206.576 10.4 209.076 10.4C213.309 10.4 216.476 11.0333 218.576 12.3L217.326 19.3H213.526L212.926 14.45ZM242.975 43C242.108 44.3667 240.692 45.65 238.725 46.85C236.792 48.05 234.542 48.65 231.975 48.65C229.575 48.65 227.592 48.1333 226.025 47.1C224.492 46.0667 223.375 44.7167 222.675 43.05C221.975 41.3833 221.625 39.5667 221.625 37.6C221.625 34.2667 222.292 31.2333 223.625 28.5C224.992 25.7333 226.842 23.55 229.175 21.95C231.508 20.35 234.108 19.55 236.975 19.55C239.542 19.55 241.442 20.15 242.675 21.35C243.942 22.5167 244.575 24.05 244.575 25.95C244.575 28.35 243.708 30.35 241.975 31.95C240.242 33.55 238.158 34.75 235.725 35.55C233.292 36.3167 230.992 36.7333 228.825 36.8C228.758 39.2 229.142 41.1333 229.975 42.6C230.842 44.0667 232.142 44.8 233.875 44.8C236.742 44.8 239.342 43.4667 241.675 40.8L242.975 43ZM235.475 22.65C233.508 22.65 231.958 23.8333 230.825 26.2C229.692 28.5667 229.025 31.2 228.825 34.1C230.125 34.0333 231.492 33.6833 232.925 33.05C234.392 32.4167 235.608 31.5333 236.575 30.4C237.575 29.2333 238.075 27.9 238.075 26.4C238.075 25.2 237.842 24.2833 237.375 23.65C236.942 22.9833 236.308 22.65 235.475 22.65ZM255.961 43C255.927 43.1333 255.911 43.3167 255.911 43.55C255.911 44.3833 256.211 44.8 256.811 44.8C257.111 44.8 257.427 44.7167 257.761 44.55C258.127 44.3833 258.611 44.0333 259.211 43.5L259.861 45.05C259.327 45.8167 258.544 46.5833 257.511 47.35C256.477 48.1167 255.144 48.5 253.511 48.5C252.244 48.5 251.211 48.25 250.411 47.75C249.611 47.2167 249.194 46.4 249.161 45.3C249.161 45.1667 249.227 44.5667 249.361 43.5L253.711 11.55L250.561 10.55L251.011 8.7L259.511 7.7L260.661 8.35L255.961 43ZM269.407 17.85C269.741 15.85 270.391 14.05 271.357 12.45C272.357 10.85 273.624 9.58333 275.157 8.65C276.691 7.71666 278.407 7.25 280.307 7.25C282.074 7.25 283.474 7.45 284.507 7.85L283.107 11.85C282.141 11.1167 281.024 10.75 279.757 10.75C278.524 10.75 277.624 11.2167 277.057 12.15C276.524 13.0833 276.124 14.5167 275.857 16.45L275.357 20.1H280.857L280.207 23.85H274.857L272.107 46.05C271.574 50.15 270.357 53.5833 268.457 56.35C266.591 59.1167 264.091 60.5167 260.957 60.55C260.191 60.5833 259.391 60.55 258.557 60.45C257.691 60.35 257.007 60.2333 256.507 60.1L257.807 55.9C258.241 56.1 258.874 56.3167 259.707 56.55C260.507 56.8167 261.157 56.95 261.657 56.95C262.557 56.95 263.257 56.5 263.757 55.6C264.291 54.7333 264.674 53.4167 264.907 51.65L268.357 23.85H265.157L265.607 21.65L269.007 20.2L269.407 17.85Z" fill="white"/>
</g>
<g clip-path="url(#clip0)">
<path fill-rule="evenodd" clip-rule="evenodd" d="M15.7794 20.0254L29.0633 21.6297L45.4282 20.0254C46.696 20.0254 47.7266 18.9912 47.7266 17.727C47.7266 16.4591 46.696 15.4249 45.4282 15.4249H43.9833L26.2868 11.6957L43.9833 7.97006H45.4282C46.696 7.97006 47.7266 6.93588 47.7266 5.66803C47.7266 4.40018 46.696 3.36963 45.4282 3.36963H15.7794C11.1898 3.36963 7.44995 7.10943 7.44995 11.6957C7.44995 13.9091 8.32827 16.0164 9.89354 17.5817C11.4588 19.1469 13.566 20.0254 15.7794 20.0254V20.0254Z" fill="#FFE07D"/>
<path fill-rule="evenodd" clip-rule="evenodd" d="M15.7794 15.425H43.9833C42.8004 12.9247 42.8076 10.4385 43.9833 7.97009H15.7794C13.729 7.97009 12.0503 9.6488 12.0503 11.6957C12.0503 12.6909 12.4433 13.6258 13.1446 14.3306C13.8494 15.0318 14.7843 15.425 15.7794 15.425V15.425Z" fill="#F9F7F8"/>
<path fill-rule="evenodd" clip-rule="evenodd" d="M43.9833 7.97009H15.7794C13.729 7.97009 12.0503 9.6488 12.0503 11.6957C12.0503 12.266 12.1813 12.8149 12.4221 13.3142C13.0278 12.0676 14.3062 11.1999 15.7794 11.1999L43.1121 11.2034C43.1794 10.1198 43.4733 9.04318 43.9833 7.97009Z" fill="#DDDAEC"/>
<path fill-rule="evenodd" clip-rule="evenodd" d="M45.428 3.36963H34.478C35.1367 4.77916 35.6184 6.32674 35.8946 7.97006H43.9832H45.4282C46.696 7.97006 47.7266 6.93588 47.7266 5.66803C47.7266 4.40018 46.6959 3.36963 45.428 3.36963V3.36963Z" fill="#FFD064"/>
<path fill-rule="evenodd" clip-rule="evenodd" d="M30.6711 40.5733L50.797 38.328C53.1379 38.328 55.0539 36.4119 55.0539 34.071V29.1767V24.2823C55.0539 21.9414 53.138 20.0254 50.797 20.0254H45.4282H15.7795H9.69526C8.45929 20.0254 7.44995 21.0347 7.44995 22.2707C7.44995 23.5067 8.45929 24.516 9.69526 24.516H11.8094L50.5632 29.1767L11.8096 33.8372H9.69526C8.45929 33.8372 7.44995 34.8466 7.44995 36.0825C7.44995 37.3185 8.45929 38.3278 9.69526 38.3278L30.6711 40.5733Z" fill="#A7E9A6"/>
<path fill-rule="evenodd" clip-rule="evenodd" d="M11.8093 33.8372H49.4298C50.0531 33.8372 50.563 33.3272 50.563 32.7039V25.6492C50.563 25.0259 50.053 24.5159 49.4298 24.5159H11.8093C12.5495 26.0671 12.9213 27.6183 12.9178 29.1765C12.9178 30.7242 12.5495 32.279 11.8093 33.8372V33.8372Z" fill="#F9F7F8"/>
<path fill-rule="evenodd" clip-rule="evenodd" d="M49.4298 24.516H11.8093C12.1741 25.2775 12.4468 26.0388 12.6309 26.8002H46.8021C47.4219 26.8002 47.9318 27.3102 47.9318 27.9335V33.8372H49.4298C50.0531 33.8372 50.563 33.3272 50.563 32.7039V25.6492C50.563 25.026 50.0531 24.516 49.4298 24.516Z" fill="#DDDAEC"/>
<path fill-rule="evenodd" clip-rule="evenodd" d="M43.9832 15.4249H35.6502C35.2572 17.0895 34.6409 18.637 33.8477 20.0254H45.4281C46.696 20.0254 47.7265 18.9912 47.7265 17.727C47.7265 16.4591 46.696 15.4249 45.4281 15.4249H43.9832Z" fill="#FFD064"/>
<path fill-rule="evenodd" clip-rule="evenodd" d="M50.797 20.0254H45.4281H42C42.7367 21.3889 43.3033 22.9011 43.6645 24.516H49.4298C50.0532 24.516 50.5631 25.026 50.5631 25.6493V32.704C50.5631 33.3273 50.053 33.8373 49.4298 33.8373H47.9318H43.3741C42.8959 35.4735 42.2018 36.9893 41.3271 38.328H50.797C53.1378 38.328 55.0538 36.412 55.0538 34.071V29.1767V24.2823C55.0538 21.9413 53.1379 20.0254 50.797 20.0254V20.0254Z" fill="#7FDBAE"/>
<path fill-rule="evenodd" clip-rule="evenodd" d="M9.69519 38.3279H9.13211C6.79129 38.3279 4.87891 40.244 4.87891 42.5849V47.4792V52.3736C4.87891 54.7145 6.7948 56.6305 9.13211 56.6305H60.8758C61.8107 56.6305 62.6181 56.0497 62.9546 55.2317C63.0609 54.9696 63.121 54.6828 63.121 54.3852C63.121 54.0842 63.0607 53.7973 62.9546 53.5353C62.6181 52.7172 61.8107 52.1399 60.8758 52.1399H58.7616L9.36941 47.8901L58.7616 42.8187H60.8758C61.8107 42.8187 62.6181 42.2414 62.9546 41.4233C63.0609 41.1613 63.121 40.8744 63.121 40.5734C63.121 40.2758 63.0607 39.9891 62.9546 39.7269C62.6181 38.9088 61.8107 38.3281 60.8758 38.3281C43.8168 38.3279 26.7543 38.3279 9.69519 38.3279V38.3279Z" fill="#FFE07D"/>
<path fill-rule="evenodd" clip-rule="evenodd" d="M58.7616 52.1398H49.5114C48.9094 53.8078 48.0736 55.3236 47.0571 56.6304H60.8758C61.8107 56.6304 62.6181 56.0496 62.9546 55.2315C63.0609 54.9695 63.121 54.6826 63.121 54.3851C63.121 54.084 63.0607 53.7972 62.9546 53.5351C62.6181 52.717 61.8107 52.1398 60.8758 52.1398H58.7616Z" fill="#FFD064"/>
<path fill-rule="evenodd" clip-rule="evenodd" d="M60.8757 38.3279H50.7968H49.012C49.6353 39.7126 50.0956 41.2213 50.3506 42.8186H58.7615H60.8757C61.8106 42.8186 62.618 42.2413 62.9545 41.4232C63.0608 41.1612 63.1209 40.8743 63.1209 40.5733C63.1209 40.2757 63.0606 39.989 62.9545 39.7268C62.6181 38.9087 61.8107 38.3279 60.8757 38.3279Z" fill="#FFD064"/>
<path fill-rule="evenodd" clip-rule="evenodd" d="M57.6531 47.4791C57.6496 45.9208 58.0214 44.3661 58.7616 42.8184C32.7782 42.8184 27.1366 42.8184 10.5026 42.8184C9.87927 42.8184 9.36938 43.3284 9.36938 43.9517V51.0064C9.36938 51.6298 9.87938 52.1398 10.5026 52.1398H58.7616C58.0214 50.5815 57.6531 49.0268 57.6531 47.4791V47.4791Z" fill="#F9F7F8"/>
<path fill-rule="evenodd" clip-rule="evenodd" d="M20.0891 42.8186H10.5026C9.87927 42.8186 9.36938 43.3286 9.36938 43.9519V47.4793C9.36938 46.8559 9.87939 46.3459 10.5026 46.3459H20.0892H21.304H26.2443H27.4554H57.7168C57.8514 45.1702 58.202 43.9943 58.7616 42.8186H27.4588H20.0891Z" fill="#DDDAEC"/>
<path fill-rule="evenodd" clip-rule="evenodd" d="M20.0894 46.615C20.0468 47.1533 20.2558 47.3268 20.7092 46.9125L23.7725 43.9908L26.8358 46.9125C27.289 47.3269 27.5015 47.1533 27.4556 46.615C27.4591 40.8033 27.4591 34.9882 27.4626 29.1765H20.0859C20.0859 34.9882 20.0894 40.8034 20.0894 46.615V46.615Z" fill="#EB5468"/>
<path fill-rule="evenodd" clip-rule="evenodd" d="M27.4626 29.1766H24.9447C24.9412 34.4853 24.9412 39.7941 24.9412 45.1029L26.2444 46.346L26.8358 46.9126C27.2891 47.327 27.5016 47.1534 27.4557 46.6151V46.3459C27.4589 40.6228 27.4589 34.8997 27.4626 29.1766V29.1766Z" fill="#E5384F"/>
<path d="M60.8759 51.2609H59.3314C58.2598 48.7149 58.2593 46.2306 59.3302 43.6974H60.8759C62.5986 43.6974 64 42.2959 64 40.5731C64 38.8505 62.5986 37.4489 60.8759 37.4489H54.6605C55.4516 36.5452 55.9326 35.3636 55.9326 34.0709V24.2822C55.9326 21.4502 53.6288 19.1463 50.797 19.1463H48.2696C48.484 18.7188 48.6054 18.2369 48.6054 17.7269C48.6054 15.9729 47.1802 14.5459 45.4282 14.5459H44.5588C43.7829 12.6279 43.7825 10.7545 44.5575 8.84884H45.4282C47.1802 8.84884 48.6054 7.42185 48.6054 5.66791C48.6054 3.91595 47.1802 2.4906 45.4282 2.4906H15.7795C10.702 2.4906 6.57109 6.61994 6.57109 11.6956C6.57109 14.1502 7.53039 16.4612 9.27203 18.203C9.61832 18.5493 9.98793 18.8632 10.3758 19.1462H9.6952C7.97254 19.1462 6.57109 20.5477 6.57109 22.2704C6.57109 23.9932 7.97254 25.3947 9.6952 25.3947H11.2409C12.3118 27.9277 12.3114 30.412 11.2397 32.9581H9.6952C7.97254 32.9581 6.57109 34.3595 6.57109 36.0823C6.57109 36.7413 6.77676 37.3529 7.12645 37.8574C5.29035 38.6408 4 40.4647 4 42.5848V52.3736C4 55.2055 6.30227 57.5093 9.13211 57.5093H60.8758C62.5984 57.5093 63.9999 56.1079 63.9999 54.3851C64 52.6624 62.5986 51.2609 60.8759 51.2609V51.2609ZM60.8759 39.2067C61.6293 39.2067 62.2422 39.8197 62.2422 40.5731C62.2422 41.3265 61.6293 41.9395 60.8759 41.9395H45.0138C44.5282 41.9395 44.1348 42.3331 44.1348 42.8185C44.1348 43.3038 44.5282 43.6974 45.0138 43.6974H57.4448C57.1013 44.6621 56.8913 45.6305 56.812 46.6002C56.812 46.6002 56.4609 48.3399 57.4466 51.2609H10.5027C10.3649 51.2609 10.2484 51.1444 10.2484 51.0065V43.9518C10.2484 43.814 10.3649 43.6975 10.5027 43.6975H19.2099L19.2105 46.584C19.155 47.4482 19.577 47.7887 19.8361 47.9153C20.0987 48.0437 20.6383 48.1681 21.3021 47.5613C21.3067 47.557 21.3113 47.5528 21.3157 47.5486L23.7725 45.2054L26.2292 47.5486C26.2336 47.5529 26.2382 47.5572 26.2428 47.5613C26.6314 47.9165 26.9773 48.0213 27.2505 48.0213C27.4456 48.0213 27.6036 47.9678 27.7132 47.9138C27.9727 47.786 28.3941 47.4438 28.3345 46.5817L28.3356 43.6975H40.6862C41.1718 43.6975 41.5652 43.304 41.5652 42.8186C41.5652 42.3332 41.1718 41.9397 40.6862 41.9397H28.3362L28.3374 39.2069H60.8759V39.2067ZM13.7596 28.2977C13.6804 27.328 13.4663 26.3597 13.123 25.3949H49.4301C49.568 25.3949 49.6845 25.5114 49.6845 25.6492V32.7039C49.6845 32.8417 49.568 32.9582 49.4301 32.9582H28.34L28.3411 30.0553H34.4922C34.9777 30.0553 35.3711 29.6618 35.3711 29.1764C35.3711 28.691 34.9777 28.2975 34.4922 28.2975H13.7596V28.2977ZM19.2077 32.9583H13.1211C13.4641 31.9922 13.6785 31.0239 13.7587 30.0554H19.2071L19.2077 32.9583ZM26.5833 30.0556L26.577 45.4512L24.3789 43.3547C24.0394 43.0308 23.5053 43.0308 23.1657 43.3547L20.9679 45.451L20.9648 30.0554H26.5833V30.0556ZM8.32891 11.6957C8.32891 7.58931 11.6712 4.24853 15.7795 4.24853H45.4282C46.2109 4.24853 46.8476 4.88533 46.8476 5.66802C46.8476 6.45271 46.2108 7.09115 45.4282 7.09115H29.2261C28.7407 7.09115 28.3472 7.48466 28.3472 7.97005C28.3472 8.45545 28.7407 8.84896 29.2261 8.84896H42.6848C42.0644 10.7397 42.0652 12.6471 42.6871 14.546H15.7795C15.0236 14.546 14.3079 14.2483 13.7677 13.7107C13.227 13.1672 12.9292 12.4517 12.9292 11.6957C12.9292 10.126 14.2079 8.84896 15.7795 8.84896H24.8986C25.384 8.84896 25.7775 8.45545 25.7775 7.97005C25.7775 7.48466 25.384 7.09115 24.8986 7.09115H15.7795C13.2386 7.09115 11.1714 9.1567 11.1714 11.6957C11.1714 12.9195 11.6509 14.0754 12.5247 14.9536C13.3998 15.8243 14.5557 16.3038 15.7795 16.3038H45.4282C46.2109 16.3038 46.8476 16.9423 46.8476 17.727C46.8476 18.5097 46.2108 19.1465 45.4282 19.1465H15.7795C13.7944 19.1465 11.9248 18.3701 10.515 16.9602C9.10527 15.5504 8.32891 13.6808 8.32891 11.6957V11.6957ZM9.6952 23.6371C8.9418 23.6371 8.32891 23.0242 8.32891 22.2707C8.32891 21.5173 8.9418 20.9043 9.6952 20.9043H50.797C52.6595 20.9043 54.1748 22.4196 54.1748 24.2823V34.071C54.1748 35.9337 52.6594 37.449 50.797 37.449H28.3381L28.3393 34.7162H49.43C50.5395 34.7162 51.4422 33.8135 51.4422 32.7041V25.6494C51.4422 24.5399 50.5395 23.6373 49.43 23.6373H9.6952V23.6371ZM9.6952 34.7161H19.208L19.2086 37.4489H9.69531C8.94191 37.4489 8.32902 36.8359 8.32902 36.0825C8.32891 35.3291 8.9418 34.7161 9.6952 34.7161V34.7161ZM60.8759 55.7515H9.13211C7.27152 55.7515 5.75781 54.2362 5.75781 52.3736V42.5848C5.75781 40.7221 7.27152 39.2067 9.13211 39.2067H19.2088L19.2094 41.9395H10.5027C9.3932 41.9395 8.49062 42.8422 8.49062 43.9517V51.0063C8.49062 52.1159 9.39332 53.0186 10.5027 53.0186H60.8759C61.6293 53.0186 62.2422 53.6316 62.2422 54.385C62.2422 55.1384 61.6293 55.7515 60.8759 55.7515Z" fill="black"/>
</g>
</g>
<defs>
<filter id="filter0_d" x="0" y="0" width="288.507" height="68.5625" filterUnits="userSpaceOnUse" color-interpolation-filters="sRGB">
<feFlood flood-opacity="0" result="BackgroundImageFix"/>
<feColorMatrix in="SourceAlpha" type="matrix" values="0 0 0 0 0 0 0 0 0 0 0 0 0 0 0 0 0 0 127 0" result="hardAlpha"/>
<feOffset dy="4"/>
<feGaussianBlur stdDeviation="2"/>
<feComposite in2="hardAlpha" operator="out"/>
<feColorMatrix type="matrix" values="0 0 0 0 0 0 0 0 0 0 0 0 0 0 0 0 0 0 0.25 0"/>
<feBlend mode="normal" in2="BackgroundImageFix" result="effect1_dropShadow"/>
<feBlend mode="normal" in="SourceGraphic" in2="effect1_dropShadow" result="shape"/>
</filter>
<filter id="filter1_d" x="65.748" y="7.25" width="222.759" height="61.3125" filterUnits="userSpaceOnUse" color-interpolation-filters="sRGB">
<feFlood flood-opacity="0" result="BackgroundImageFix"/>
<feColorMatrix in="SourceAlpha" type="matrix" values="0 0 0 0 0 0 0 0 0 0 0 0 0 0 0 0 0 0 127 0" result="hardAlpha"/>
<feOffset dy="4"/>
<feGaussianBlur stdDeviation="2"/>
<feComposite in2="hardAlpha" operator="out"/>
<feColorMatrix type="matrix" values="0 0 0 0 0 0 0 0 0 0 0 0 0 0 0 0 0 0 0.25 0"/>
<feBlend mode="normal" in2="BackgroundImageFix" result="effect1_dropShadow"/>
<feBlend mode="normal" in="SourceGraphic" in2="effect1_dropShadow" result="shape"/>
</filter>
<clipPath id="clip0">
<rect width="60" height="60" fill="white" transform="translate(4)"/>
</clipPath>
</defs>
</svg>
